<svg width="100" height="100" viewBox="0 0 100 100" fill="none" xmlns="http://www.w3.org/2000/svg">
<rect width="100" height="100" rx="10" fill="white"/>
<circle cx="50" cy="38" r="25" fill="#E3C89F"/>
<path d="M49.1378 57C49.1378 57 41.5998 74.0001 49.8908 74.0001C58.1819 74.0001 58.6315 61.9656 66.1377 57.0001C67.1377 56.0001 57.4288 57 49.1378 57C63.1378 52.5 40.8467 57 49.1378 57Z" fill="#E3C89F"/>
<path d="M51 56.9998C51 56.9998 58.538 73.9999 50.2469 73.9999C41.9559 73.9999 41.5063 61.9654 34.0001 56.9999C33 55.9999 42.7089 56.9998 51 56.9998C37 52.4999 59.2911 56.9998 51 56.9998Z" fill="#E3C89F"/>
<path d="M44.8007 63C44.8007 63 39.297 53 37.2957 43C36.4924 38.9865 37.3258 33 39.7973 33C42.2689 33 39.8275 43 42.299 43C44.7705 43 42.299 33 44.8007 33C47.3023 33.0001 44.8007 43 47.3023 43C50.3043 43.0001 47.6829 33 50.3043 33C52.806 33 50.3043 43 52.806 43C55.3077 43 52.806 33 55.3077 33C57.8093 33 55.3077 43 57.8093 43C60.311 43 57.8093 33 60.311 33C62.8127 33 63.3449 38.8632 62.8127 43C61.3117 54.6667 55.3077 63 55.3077 63" stroke="#C99343" stroke-linecap="round"/>
<rect x="37" y="63" width="26" height="25" fill="#D9D9D9"/>
</svg>
